<svg viewBox="0 0 36 26" xmlns="http://www.w3.org/2000/svg">
    <path
        d="M33.3191 15.8199C31.5957 17.2894 28.9149 17.6568 27 17.8405L27.766 15.8199C28.3404 15.7587 30.8298 15.1464 31.7872 14.5341C32.7447 13.9218 33.0319 13.6156 33.3191 13.2483C33.8936 12.5135 34.0851 11.2277 34.0851 10.8603C34.0851 10.4929 34.0851 10.3092 33.8936 9.75815C33.7021 9.20708 32.9362 8.65601 31.7872 8.65601C31.1745 8.65601 29.8723 8.90093 29.4894 9.02339V7.0028C30 6.88034 31.7872 6.70889 33.3191 7.0028C35.4255 7.40692 36 9.57446 36 10.8603C36 12.3298 35.152 14.2571 33.3191 15.8199Z" />
    <path fill-rule="evenodd" clip-rule="evenodd"
        d="M15 10.8405C21.6274 10.8405 27 9.04965 27 6.84052C27 6.41175 26.7976 5.99875 26.423 5.61153C28.5896 4.45706 29.8727 4.60611 29.8727 8.9342C29.8727 18.3751 23.4779 25.8405 15.135 25.8405C6.79204 25.8405 0.0287483 18.3751 0.0287483 8.9342C-0.204788 5.6572 0.999172 5.45892 3.10661 6.30499C3.0363 6.48017 3 6.65893 3 6.84052C3 9.04965 8.37258 10.8405 15 10.8405Z" />
    <path fill-rule="evenodd" clip-rule="evenodd"
        d="M14.9508 15.2859C23.192 15.2859 29.8728 11.8641 29.8728 7.64297C29.8728 3.42188 23.192 0 14.9508 0C6.70961 0 0.0288086 3.42188 0.0288086 7.64297C0.0288086 11.8641 6.70961 15.2859 14.9508 15.2859ZM15 10.8405C21.6274 10.8405 27 9.04965 27 6.84052C27 4.63138 21.6274 2.84052 15 2.84052C8.37258 2.84052 3 4.63138 3 6.84052C3 9.04965 8.37258 10.8405 15 10.8405Z" />
</svg>