<svg width="44" height="44" viewBox="0 0 44 44" fill="none" xmlns="http://www.w3.org/2000/svg">
    <path
        d="M21.9999 38.5C19.6842 36.5249 17.5379 34.3594 15.5832 32.0265C12.6499 28.523 9.16657 23.3053 9.16657 18.3333C9.16397 13.1405 12.291 8.45786 17.0885 6.47054C21.886 4.4832 27.4084 5.58292 31.0786 9.25647C33.4921 11.6593 34.8441 14.9277 34.8332 18.3333C34.8332 23.3053 31.3498 28.523 28.4165 32.0265C26.4619 34.3594 24.3156 36.5249 21.9999 38.5ZM21.9999 12.8333C20.0349 12.8333 18.2192 13.8816 17.2367 15.5833C16.2543 17.2849 16.2543 19.3817 17.2367 21.0833C18.2192 22.7849 20.0349 23.8333 21.9999 23.8333C25.0374 23.8333 27.4999 21.3708 27.4999 18.3333C27.4999 15.2958 25.0374 12.8333 21.9999 12.8333Z"
        fill="#643A14" />
    <path
        d="M29.6356 19.344C29.6356 23.5628 26.2508 26.9829 22.0755 26.9829C17.9001 26.9829 14.5153 23.5628 14.5153 19.344C14.5153 15.1251 17.9001 11.7051 22.0755 11.7051C26.2508 11.7051 29.6356 15.1251 29.6356 19.344Z"
        fill="#643A14" />
    <path
        d="M22.0758 26.4304C26.5016 26.4304 30.0895 25.0282 30.0895 23.2984C30.0895 21.5687 26.5016 20.1665 22.0758 20.1665C17.6499 20.1665 14.062 21.5687 14.062 23.2984C14.062 25.0282 17.6499 26.4304 22.0758 26.4304Z"
        fill="white" />
    <path
        d="M28.7878 16.4425C28.7878 20.7404 25.9066 24.1391 22.1476 24.1391C18.3887 24.1391 15.3413 20.7404 15.3413 16.4425C15.0954 12.9551 18.3887 17.1266 22.1476 17.1266C25.9066 17.1266 28.7878 12.0438 28.7878 16.4425Z"
        fill="#643A14" />
    <path
        d="M22.0645 19.3339C25.7776 19.3339 28.7877 17.7761 28.7877 15.8545C28.7877 13.9328 25.7776 12.375 22.0645 12.375C18.3514 12.375 15.3413 13.9328 15.3413 15.8545C15.3413 17.7761 18.3514 19.3339 22.0645 19.3339Z"
        fill="#643A14" />
    <path
        d="M30.6941 17.3845C30.4153 19.5767 28.1178 20.1669 27.3477 20.1669C26.5776 20.1669 27.6265 17.903 27.6265 16.8786C27.6265 15.6138 28.5561 15.5101 29.2997 15.6138C30.0435 15.7177 30.8163 16.4238 30.6941 17.3845Z"
        fill="white" />
    <path
        d="M29.9281 17.5087C29.7329 19.0009 28.1248 19.4027 27.586 19.4027C27.0469 19.4027 27.206 18.1817 27.3883 17.5087C27.586 16.7792 28.4962 16.2831 29.0166 16.3539C29.5371 16.4245 30.0137 16.8548 29.9281 17.5087Z"
        fill="#643A14" />
    <path
        d="M28.275 16.278C28.275 20.241 25.6182 23.3748 22.1522 23.3748C18.6862 23.3748 15.8764 20.241 15.8764 16.278C15.6496 13.0623 18.6862 16.9088 22.1522 16.9088C25.6182 16.9088 28.275 12.222 28.275 16.278Z"
        fill="white" />
    <path
        d="M22.0756 18.9445C25.4994 18.9445 28.2749 17.5081 28.2749 15.7362C28.2749 13.9643 25.4994 12.5278 22.0756 12.5278C18.6518 12.5278 15.8763 13.9643 15.8763 15.7362C15.8763 17.5081 18.6518 18.9445 22.0756 18.9445Z"
        fill="white" />
    <path
        d="M22.1514 17.111C24.9488 17.111 27.2166 16.2902 27.2166 15.2777C27.2166 14.2651 24.9488 13.4443 22.1514 13.4443C19.3539 13.4443 17.0861 14.2651 17.0861 15.2777C17.0861 16.2902 19.3539 17.111 22.1514 17.111Z"
        fill="#44270C" />
</svg>