<svg width="128" height="126" viewBox="0 0 128 126" fill="none" xmlns="http://www.w3.org/2000/svg">
    <path
        d="M64 110.25C57.2635 104.594 51.0196 98.3928 45.3331 91.7122C36.8 81.6795 26.6666 66.738 26.6666 52.5C26.6591 37.6296 35.7559 24.2203 49.7123 18.5293C63.6687 12.8383 79.7338 15.9875 90.4106 26.5072C97.4317 33.3879 101.365 42.7475 101.333 52.5C101.333 66.738 91.1997 81.6795 82.6664 91.7122C76.9803 98.3928 70.7365 104.594 64 110.25ZM64 36.75C58.2835 36.75 53.0016 39.7519 50.1434 44.625C47.2856 49.4978 47.2856 55.5021 50.1434 60.375C53.0016 65.2478 58.2835 68.25 64 68.25C72.8364 68.25 80 61.1983 80 52.5C80 43.8016 72.8364 36.75 64 36.75Z"
        fill="#643A14" />
    <path
        d="M86.213 55.3942C86.213 67.4753 76.3663 77.2692 64.2199 77.2692C52.0735 77.2692 42.2268 67.4753 42.2268 55.3942C42.2268 43.3128 52.0735 33.519 64.2199 33.519C76.3663 33.519 86.213 43.3128 86.213 55.3942Z"
        fill="#643A14" />
    <path
        d="M64.22 75.6875C77.0952 75.6875 87.5327 71.6721 87.5327 66.7188C87.5327 61.7654 77.0952 57.75 64.22 57.75C51.3447 57.75 40.9073 61.7654 40.9073 66.7188C40.9073 71.6721 51.3447 75.6875 64.22 75.6875Z"
        fill="white" />
    <path
        d="M83.7459 47.0845C83.7459 59.3923 75.3643 69.1249 64.4289 69.1249C53.4939 69.1249 44.6289 59.3923 44.6289 47.0845C43.9136 37.098 53.4939 49.0436 64.4289 49.0436C75.3643 49.0436 83.7459 34.4884 83.7459 47.0845Z"
        fill="#643A14" />
    <path
        d="M64.1874 55.3653C74.9892 55.3653 83.7458 50.9043 83.7458 45.4014C83.7458 39.8985 74.9892 35.4375 64.1874 35.4375C53.3856 35.4375 44.629 39.8985 44.629 45.4014C44.629 50.9043 53.3856 55.3653 64.1874 55.3653Z"
        fill="#643A14" />
    <path
        d="M89.2921 49.7824C88.481 56.0601 81.7973 57.7501 79.5571 57.7501C77.3168 57.7501 80.3682 51.2673 80.3682 48.3338C80.3682 44.7118 83.0724 44.4147 85.2357 44.7118C87.3994 45.0093 89.6475 47.0314 89.2921 49.7824Z"
        fill="white" />
    <path
        d="M87.0638 50.1388C86.4959 54.4118 81.818 55.5624 80.2503 55.5624C78.6822 55.5624 79.1449 52.0659 79.6754 50.1388C80.2503 48.0497 82.8983 46.6291 84.4123 46.8317C85.9263 47.0338 87.3127 48.2663 87.0638 50.1388Z"
        fill="#643A14" />
    <path
        d="M82.2544 46.6149C82.2544 57.9636 74.5255 66.9376 64.4426 66.9376C54.3596 66.9376 46.1856 57.9636 46.1856 46.6149C45.5258 37.4064 54.3596 48.4213 64.4426 48.4213C74.5255 48.4213 82.2544 35.0001 82.2544 46.6149Z"
        fill="white" />
    <path
        d="M64.2199 54.25C74.18 54.25 82.2543 50.1366 82.2543 45.0625C82.2543 39.9884 74.18 35.875 64.2199 35.875C54.2598 35.875 46.1856 39.9884 46.1856 45.0625C46.1856 50.1366 54.2598 54.25 64.2199 54.25Z"
        fill="white" />
    <path
        d="M64.4399 49C72.578 49 79.1753 46.6495 79.1753 43.75C79.1753 40.8505 72.578 38.5 64.4399 38.5C56.3018 38.5 49.7045 40.8505 49.7045 43.75C49.7045 46.6495 56.3018 49 64.4399 49Z"
        fill="#44270C" />
</svg>