<svg viewBox="0 0 24 24" xmlns="http://www.w3.org/2000/svg">
    <path
        d="M21.5215 23.4926L13.4252 15.4069C9.82359 17.9637 4.86068 17.3383 2.00813 13.9682C-0.844422 10.5981 -0.634967 5.60765 2.48997 2.4877C5.61409 -0.633617 10.6125 -0.843666 13.9882 2.0045C17.3639 4.85267 17.9906 9.80871 15.4298 13.4053L23.5261 21.491L21.5229 23.4912L21.5215 23.4926ZM8.49947 2.83C5.81305 2.8294 3.49537 4.71235 2.94965 7.33886C2.40392 9.96537 3.78015 12.6135 6.2451 13.6801C8.71005 14.7466 11.5862 13.9384 13.1323 11.7447C14.6784 9.55101 14.4694 6.57483 12.6319 4.61803L13.489 5.46677L12.5228 4.50487L12.5058 4.48789C11.4458 3.42297 10.0031 2.82596 8.49947 2.83Z" />
</svg>