<svg viewBox="0 0 29 29" xmlns="http://www.w3.org/2000/svg">
    <path
        d="M23.4116 25.024C23.6076 24.9164 23.7003 24.6835 23.6174 24.4758C23.023 22.9861 21.8777 21.6741 20.3297 20.7179C18.6572 19.6849 16.6081 19.125 14.5 19.125C12.3919 19.125 10.3428 19.6849 8.67032 20.7179C7.12226 21.6741 5.97704 22.9861 5.38256 24.4758C5.29969 24.6835 5.39238 24.9164 5.58837 25.024V25.024C11.1387 28.0713 17.8613 28.0713 23.4116 25.024V25.024Z" />
    <path fill-rule="evenodd" clip-rule="evenodd"
        d="M14.5 29C22.5081 29 29 22.5081 29 14.5C29 6.49187 22.5081 0 14.5 0C6.49187 0 0 6.49187 0 14.5C0 22.5081 6.49187 29 14.5 29ZM14.5 27C21.4036 27 27 21.4036 27 14.5C27 7.59644 21.4036 2 14.5 2C7.59644 2 2 7.59644 2 14.5C2 21.4036 7.59644 27 14.5 27Z" />
    <path fill-rule="evenodd" clip-rule="evenodd"
        d="M14.5 17C17.5376 17 20 14.5376 20 11.5C20 8.46243 17.5376 6 14.5 6C11.4624 6 9 8.46243 9 11.5C9 14.5376 11.4624 17 14.5 17ZM14.5 15C16.433 15 18 13.433 18 11.5C18 9.567 16.433 8 14.5 8C12.567 8 11 9.567 11 11.5C11 13.433 12.567 15 14.5 15Z" />
</svg>